<?xml version="1.0" encoding="utf-8"?>
<!-- Generator: Adobe Illustrator 21.1.0, SVG Export Plug-In . SVG Version: 6.00 Build 0)  -->
<svg version="1.1" id="Слой_1" xmlns="http://www.w3.org/2000/svg" xmlns:xlink="http://www.w3.org/1999/xlink" x="0px" y="0px"
	 viewBox="0 0 512 512" style="enable-background:new 0 0 512 512;" xml:space="preserve">
<style type="text/css">
	.st0{fill:#141414;}
</style>
<g>
	<path class="st0" d="M506.1,6.4v500H7.1V6.4H506.1 M512.1,0.4H1.1v512h511V0.4L512.1,0.4z"/>
</g>
<path class="st0" d="M426.6,219.4H301c-4.1,0-7.4-3.3-7.4-7.4V86.3c0-20.4-16.6-37-37-37s-37,16.6-37,37V212c0,4.1-3.3,7.4-7.4,7.4
	H86.6c-20.4,0-37,16.6-37,37c0,20.4,16.6,37,37,37h125.7c4.1,0,7.4,3.3,7.4,7.4v125.7c0,20.4,16.6,37,37,37s37-16.6,37-37V300.7
	c0-4.1,3.3-7.4,7.4-7.4h125.5c20.4,0,37-16.6,37-37S447,219.4,426.6,219.4z"/>
</svg>
