<?xml version="1.0" encoding="utf-8"?>
<!-- Generator: Adobe Illustrator 21.1.0, SVG Export Plug-In . SVG Version: 6.00 Build 0)  -->
<svg version="1.1" baseProfile="tiny" id="Слой_1"
	 xmlns="http://www.w3.org/2000/svg" xmlns:xlink="http://www.w3.org/1999/xlink" x="0px" y="0px" viewBox="0 0 64 64"
	 xml:space="preserve">
<g>
	<g>
		<path fill="#666666" d="M46.6,30.1H34.4V18c0-1.1-0.9-2-2-2s-2,0.9-2,2v12.1H18.3c-1.1,0-2,0.9-2,2s0.9,2,2,2h12.1v12.1
			c0,1.1,0.9,2,2,2s2-0.9,2-2V34.1h12.1c1.1,0,2-0.9,2-2S47.7,30.1,46.6,30.1z"/>
		<path fill="#666666" d="M32,0C14.4,0,0,14.4,0,32s14.4,32,32,32s32-14.4,32-32S49.6,0,32,0z M32,60C16.6,60,4,47.4,4,32
			S16.6,4,32,4s28,12.6,28,28S47.4,60,32,60z"/>
	</g>
</g>
</svg>
