<?xml version="1.0" encoding="utf-8"?>
<!-- Generator: Adobe Illustrator 21.1.0, SVG Export Plug-In . SVG Version: 6.00 Build 0)  -->
<svg version="1.1" id="Слой_1" xmlns="http://www.w3.org/2000/svg" xmlns:xlink="http://www.w3.org/1999/xlink" x="0px" y="0px"
	 viewBox="0 0 512 512" style="enable-background:new 0 0 512 512;" xml:space="preserve">
<style type="text/css">
	.st0{fill:#141414;}
</style>
<g>
	<path class="st0" d="M311.8,256l97.3-97.3c15.4-15.4,15.4-40.4,0-55.8c-15.4-15.4-40.4-15.4-55.8,0l-97.3,97.4l-97.3-97.4
		c-15.4-15.4-40.4-15.4-55.8,0c-15.4,15.4-15.4,40.4,0,55.8l97.3,97.3L103,353.4c-15.4,15.4-15.4,40.4,0,55.8
		c7.7,7.7,17.8,11.5,27.9,11.5c10.1,0,20.2-3.8,27.9-11.5l97.3-97.3l97.3,97.3c7.7,7.7,17.8,11.5,27.9,11.5
		c10.1,0,20.2-3.8,27.9-11.5c15.4-15.4,15.4-40.4,0-55.8L311.8,256z"/>
</g>
</svg>
