<?xml version="1.0" encoding="utf-8"?>
<!-- Generator: Adobe Illustrator 21.1.0, SVG Export Plug-In . SVG Version: 6.00 Build 0)  -->
<svg version="1.1" id="Слой_1" xmlns="http://www.w3.org/2000/svg" xmlns:xlink="http://www.w3.org/1999/xlink" x="0px" y="0px"
	 viewBox="0 0 512 512" style="enable-background:new 0 0 512 512;" xml:space="preserve">
<style type="text/css">
	.st0{fill:#141414;}
</style>
<g>
	<g>
		<path class="st0" d="M399.6,119h-95c-26.5,0-51.3,14.2-64.7,37.2l-72.3,124.1h-8.1l3.4-43.9c0.2-2.5-0.7-4.9-2.3-6.7
			c-1.7-1.8-4-2.8-6.5-2.8H96.2c-2.5,0-4.8,1-6.5,2.8c-1.7,1.8-2.5,4.3-2.3,6.7l3.7,48.7c-28.3,10.7-48.5,38.1-48.5,70.1
			c0,41.3,33.6,74.9,74.9,74.9h93.2c26.5,0,51.3-14.2,64.7-37.2l72.3-124.1h52c41.3,0,74.9-33.6,74.9-74.9S440.9,119,399.6,119z
			 M399.6,222.7h-65.2c-8.2,0-15.8,4.4-19.9,11.4l-79,135.5c-5.1,8.8-14.7,14.3-24.9,14.3h-93.2c-15.9,0-28.8-12.9-28.8-28.8
			c0-15.9,12.9-28.8,28.8-28.8h63.4c8.2,0,15.8-4.4,19.9-11.4l79-135.5c5.1-8.8,14.7-14.3,24.9-14.3h95c15.9,0,28.8,12.9,28.8,28.8
			S415.5,222.7,399.6,222.7z"/>
		<circle class="st0" cx="125.1" cy="198" r="26"/>
	</g>
</g>
<g>
	<path class="st0" d="M506,7v500H7V7H506 M512,1H1v512h511V1L512,1z"/>
</g>
</svg>
