<?xml version="1.0" encoding="utf-8"?>
<!-- Generator: Adobe Illustrator 21.1.0, SVG Export Plug-In . SVG Version: 6.00 Build 0)  -->
<svg version="1.1" id="Слой_1" xmlns="http://www.w3.org/2000/svg" xmlns:xlink="http://www.w3.org/1999/xlink" x="0px" y="0px"
	 viewBox="0 0 512 512" style="enable-background:new 0 0 512 512;" xml:space="preserve">
<style type="text/css">
	.st0{fill:#141414;}
</style>
<g>
	<path class="st0" d="M506.1,6.4v500H7.1V6.4H506.1 M512.1,0.4H1.1v512h511V0.4L512.1,0.4z"/>
</g>
<g>
	<g>
		<path class="st0" d="M74.3,98.3c-26.1,0-47.3,21.2-47.3,47.3c0,26.1,21.2,47.3,47.3,47.3c26.1,0,47.3-21.2,47.3-47.3
			C121.7,119.5,100.4,98.3,74.3,98.3z M74.3,170.1c-13.5,0-24.5-11-24.5-24.5s11-24.5,24.5-24.5s24.5,11,24.5,24.5
			C98.8,159.1,87.8,170.1,74.3,170.1z"/>
		<path class="st0" d="M160,163.7h296.9c10,0,18.1-8.1,18.1-18.1c0-10-8.1-18.1-18.1-18.1H160c-10,0-18.1,8.1-18.1,18.1
			C141.8,155.6,150,163.7,160,163.7z"/>
		<path class="st0" d="M74.3,216.3c-26.1,0-47.3,21.2-47.3,47.3S48.2,311,74.3,311c26.1,0,47.3-21.2,47.3-47.3
			S100.4,216.3,74.3,216.3z M74.3,288.1c-13.5,0-24.5-11-24.5-24.5c0-13.5,11-24.5,24.5-24.5s24.5,11,24.5,24.5
			C98.8,277.1,87.8,288.1,74.3,288.1z"/>
		<path class="st0" d="M456.9,245.5H160c-10,0-18.1,8.1-18.1,18.1c0,10,8.1,18.1,18.1,18.1h296.9c10,0,18.1-8.1,18.1-18.1
			S466.9,245.5,456.9,245.5z"/>
		<path class="st0" d="M74.3,334.3c-26.1,0-47.3,21.2-47.3,47.3c0,26.1,21.2,47.3,47.3,47.3c26.1,0,47.3-21.2,47.3-47.3
			C121.7,355.5,100.4,334.3,74.3,334.3z M74.3,406.1c-13.5,0-24.5-11-24.5-24.5s11-24.5,24.5-24.5s24.5,11,24.5,24.5
			C98.8,395.1,87.8,406.1,74.3,406.1z"/>
		<path class="st0" d="M456.9,363.5H160c-10,0-18.1,8.1-18.1,18.1s8.1,18.1,18.1,18.1h296.9c10,0,18.1-8.1,18.1-18.1
			S466.9,363.5,456.9,363.5z"/>
	</g>
</g>
</svg>
