<?xml version="1.0" encoding="utf-8"?>
<!-- Generator: Adobe Illustrator 21.1.0, SVG Export Plug-In . SVG Version: 6.00 Build 0)  -->
<svg version="1.1" id="Слой_1" xmlns="http://www.w3.org/2000/svg" xmlns:xlink="http://www.w3.org/1999/xlink" x="0px" y="0px"
	 viewBox="0 0 512 512" style="enable-background:new 0 0 512 512;" xml:space="preserve">
<style type="text/css">
	.st0{fill:#141414;}
</style>
<g>
	<path class="st0" d="M506,6.9v500H7V6.9H506 M512,0.9H1v512h511V0.9L512,0.9z"/>
</g>
<path id="Лифт" class="st0" d="M123.8,177.2c-4.6-4.6-7-10.3-7-17c0-6.7,2.3-12.3,7-17c4.6-4.6,10.3-7,17-7s12.3,2.3,17,7
	s7,10.3,7,17c0,6.7-2.3,12.3-7,17c-4.6,4.6-10.3,7-17,7C134.2,184.1,128.5,181.8,123.8,177.2z M93.1,291.9c1.5,1.2,3.2,1.7,5.2,1.7
	c2,0,3.8-0.6,5.2-1.7s2.2-3.1,2.2-5.8v-62V221c0-1,0.4-1.6,1.5-2s1.9-0.4,2.5-0.4s1.5,0.1,2.5,0.4s1.5,1,1.5,2v149.6
	c0,3.1,1,5.5,3.2,7.6c2.2,2,4.8,3.1,7.7,3.1c3.1,0,5.5-1,7.7-3.1c2.2-2,3.2-4.5,3.2-7.6v-58.5v-33c0-1.6,0.7-2.8,2-3.2
	c1.3-0.4,2.3-0.7,3.1-0.7c0.7,0,1.6,0.3,2.8,0.7c1.2,0.4,1.7,1.6,1.7,3.2v33v58.5c0,3.1,1,5.5,3.2,7.6c2.2,2,4.8,3.1,7.7,3.1
	c3.3,0,6-1,8-3.1s3.1-4.5,3.1-7.6l0.4-149.6c0-1,0.4-1.6,1.5-2c1-0.4,1.9-0.4,2.5-0.4c0.7,0,1.5,0.1,2.5,0.4c1,0.3,1.5,1,1.5,2v3.1
	v62c0,2.6,0.7,4.6,2.2,5.8c1.5,1.2,3.2,1.7,4.9,1.7c1.9,0,3.5-0.6,4.9-1.7s2.2-3.1,2.2-5.8v-69c0-6.7-2.2-12.6-6.7-18
	c-4.5-5.4-9.7-8-17.4-8h-27h-0.4h-25c-7.7,0-13.2,2.6-16.7,8c-3.5,5.4-5.2,11.3-5.2,18v69C90.7,288.9,91.5,290.7,93.1,291.9z
	 M352.3,97.3c3.1,2.9,4.5,6.4,4.5,10.7v298.2c0,4.4-1.5,8-4.5,10.7c-3.1,2.9-6.7,4.2-11,4.2H55.7c-4.4,0-8-1.5-11-4.2
	c-3.1-2.9-4.5-6.4-4.5-10.7v-298c0-4.4,1.5-8,4.5-10.7c3.1-2.9,6.7-4.2,11-4.2h285.7C345.8,93.1,349.4,94.5,352.3,97.3z M331.8,118
	H65.3v278.2H332L331.8,118L331.8,118z M255.9,184.1c6.7,0,12.3-2.3,17-7c4.6-4.6,7-10.3,7-17s-2.3-12.3-7-17c-4.6-4.6-10.3-7-17-7
	c-6.7,0-12.3,2.3-17,7s-7,10.3-7,17s2.3,12.3,7,17C243.5,181.8,249.2,184.1,255.9,184.1z M208.1,291.9c1.5,1.2,3.2,1.7,5.2,1.7
	s3.8-0.6,5.2-1.7c1.5-1.2,2.2-3.1,2.2-5.8v-62V221c0-1,0.4-1.6,1.5-2c1-0.4,1.9-0.4,2.5-0.4c0.7,0,1.5,0.1,2.5,0.4
	c1,0.3,1.5,1,1.5,2v149.6c0,3.1,1,5.5,3.2,7.6c2.2,2,4.8,3.1,7.7,3.1c3.1,0,5.5-1,7.7-3.1c2.2-2,3.2-4.5,3.2-7.6v-58.5v-33
	c0-1.6,0.7-2.8,2-3.2c1.3-0.4,2.3-0.7,3.1-0.7c0.7,0,1.6,0.3,3.1,0.7c1.3,0.4,2,1.6,2,3.2v33v58.5c0,3.1,1,5.5,3.1,7.6
	s4.6,3.1,8,3.1c3.1,0,5.5-1,7.7-3.1c2.2-2,3.2-4.5,3.2-7.6V221c0-1,0.4-1.6,1.5-2c1-0.3,1.9-0.4,2.5-0.4c0.7,0,1.5,0.1,2.5,0.4
	c1,0.3,1.5,1,1.5,2v3.1v62c0,2.6,0.7,4.6,2.2,5.8s3.2,1.7,5.2,1.7s3.8-0.6,5.2-1.7s2.2-3.1,2.2-5.8v-69c0-6.7-2.3-12.6-7-18
	c-4.6-5.4-10.9-8-18.4-8h-26.6h-0.4h0.1h-24.5c-7.7,0-13.4,2.6-17,8c-3.6,5.4-5.5,11.3-5.5,18v69
	C205.8,288.9,206.6,290.7,208.1,291.9z M468.4,362.8c-8.7,0-22.4,0-22.4,0s0-3.8,0-9.4c0-17.7,0-52.1,0-65.4c0,0,0.1-3.1-3.9-3.1
	c-3.9,0-28.5,0-34.1,0s-4.6,3.6-4.6,3.6c0,13.5,0,46.9,0,65.2c0,6.4,0,10.6,0,10.6s-17.1,0-24.3,0s-0.6,6.1-0.6,6.1l43,52
	c0,0,3.5,4.1,7.3,0.4c5.1-5.1,41.7-53.7,41.7-53.7S477.1,362.8,468.4,362.8z M380.2,159.4c8.7,0,22.4,0,22.4,0s0,3.8,0,9.4
	c0,17.7,0,52.1,0,65.4c0,0-0.1,3.1,3.9,3.1c3.9,0,28.5,0,34.1,0s4.6-3.6,4.6-3.6c0-13.5,0-46.9,0-65.2c0-6.4,0-10.6,0-10.6
	s17.1,0,24.3,0c7.1,0,0.6-6.1,0.6-6.1l-43-52c0,0-3.5-4.1-7.3-0.4c-5.1,5.1-41.7,53.7-41.7,53.7S371.6,159.4,380.2,159.4z"/>
</svg>
