<?xml version="1.0" encoding="utf-8"?>
<!-- Generator: Adobe Illustrator 21.1.0, SVG Export Plug-In . SVG Version: 6.00 Build 0)  -->
<svg version="1.1" id="Слой_1" xmlns="http://www.w3.org/2000/svg" xmlns:xlink="http://www.w3.org/1999/xlink" x="0px" y="0px"
	 viewBox="0 0 512 512" style="enable-background:new 0 0 512 512;" xml:space="preserve">
<style type="text/css">
	.st0{fill:#141414;}
</style>
<g>
	<path class="st0" d="M506,6.1v500H6.3V6.1H506 M512,0.1H0.3v512H512V0.1L512,0.1z"/>
</g>
<g>
	<g>
		<path class="st0" d="M252.9,185.8c-10.3,0-17,1-20.9,2v65.8c4.4,1,9.7,1.3,16.9,1.3c26.8,0,43.3-13.6,43.3-36.3
			C292.3,198,278,185.8,252.9,185.8z"/>
		<path class="st0" d="M406.2,54.1H106.8C80.4,54.1,59,75.5,59,101.9v308.3c0,26.4,21.4,47.8,47.9,47.8h299.4
			c26.4,0,47.8-21.4,47.8-47.8V101.9C454.1,75.5,432.6,54.1,406.2,54.1z M424.6,402.6c0,14.4-11.7,26-26,26H113.9
			c-14.4,0-26-11.7-26-26V110.2c0-14.4,11.7-26,26-26h284.6c14.4,0,26,11.7,26,26L424.6,402.6L424.6,402.6z"/>
		<path class="st0" d="M398.5,102.5H113.9c-4.2,0-7.7,3.4-7.7,7.7v292.4c0,4.2,3.4,7.7,7.7,7.7h284.6c4.2,0,7.7-3.4,7.7-7.7V110.2
			C406.2,105.9,402.8,102.5,398.5,102.5z M321.7,270.1c-17.2,16.2-42.7,23.5-72.5,23.5c-6.6,0-12.3-0.3-17.3-1v79.9h-49.5v-220
			c15.6-2.6,37.2-4.6,68-4.6c31.1,0,53.2,6,68,17.9c14.2,11.2,23.8,29.7,23.8,51.5C342.3,239,335,257.5,321.7,270.1z"/>
	</g>
</g>
</svg>
