<?xml version="1.0" encoding="utf-8"?>
<!-- Generator: Adobe Illustrator 21.1.0, SVG Export Plug-In . SVG Version: 6.00 Build 0)  -->
<svg version="1.1" baseProfile="tiny" id="Слой_1"
	 xmlns="http://www.w3.org/2000/svg" xmlns:xlink="http://www.w3.org/1999/xlink" x="0px" y="0px" viewBox="0 0 64 64"
	 xml:space="preserve">
<g>
	<g>
		<path fill="#666666" d="M32,0C14.3,0,0,14.4,0,32s14.4,32,32,32s32-14.4,32-32S49.6,0,32,0z M32,60C16.5,60,4,47.4,4,32
			S16.5,4,32,4s28,12.6,28,28S47.4,60,32,60z"/>
	</g>
	<path fill="#666666" d="M45.8,34.8H18.1c-1.1,0-2-0.9-2-2v-0.3c0-1.1,0.9-2,2-2h27.8c1.1,0,2,0.9,2,2v0.3
		C47.9,33.8,47,34.8,45.8,34.8z"/>
</g>
</svg>
