<?xml version="1.0" encoding="utf-8"?>
<!-- Generator: Adobe Illustrator 21.1.0, SVG Export Plug-In . SVG Version: 6.00 Build 0)  -->
<svg version="1.1" id="Слой_1" xmlns="http://www.w3.org/2000/svg" xmlns:xlink="http://www.w3.org/1999/xlink" x="0px" y="0px"
	 viewBox="0 0 512 512" style="enable-background:new 0 0 512 512;" xml:space="preserve">
<style type="text/css">
	.st0{fill:#141414;}
</style>
<g>
	<path class="st0" d="M506.1,6v500H6V6H506.1 M512.1,0H0v512h512.1V0L512.1,0z"/>
</g>
<g>
	
		<rect x="200.7" y="-42.8" transform="matrix(1.078802e-03 -1 1 1.078802e-03 170.486 341.6394)" class="st0" width="111.2" height="256.5"/>
	
		<rect x="179.6" y="105.3" transform="matrix(1.078802e-03 -1 1 1.078802e-03 22.7265 357.7197)" class="st0" width="21.7" height="124.4"/>
	
		<rect x="311.3" y="105.5" transform="matrix(1.078802e-03 -1 1 1.078802e-03 154.1618 489.6861)" class="st0" width="21.7" height="124.4"/>
	
		<rect x="200.3" y="298.7" transform="matrix(1.078802e-03 -1 1 1.078802e-03 -171.3165 682.3719)" class="st0" width="111.2" height="256.5"/>
	
		<rect x="179.6" y="134.2" transform="matrix(1.078802e-03 -1 1 1.078802e-03 -6.1604 386.6626)" class="st0" width="21.7" height="124.4"/>
	
		<rect x="311.4" y="134.4" transform="matrix(1.078802e-03 -1 1 1.078802e-03 125.2747 518.6288)" class="st0" width="21.7" height="124.4"/>
	
		<rect x="179.4" y="163.3" transform="matrix(1.078802e-03 -1 1 1.078802e-03 -35.3948 415.5723)" class="st0" width="21.7" height="124.4"/>
	
		<rect x="311.3" y="163.4" transform="matrix(1.078802e-03 -1 1 1.078802e-03 96.2307 547.5389)" class="st0" width="21.7" height="124.4"/>
	
		<rect x="179.5" y="194.1" transform="matrix(1.078802e-03 -1 1 1.078802e-03 -66.1987 446.4027)" class="st0" width="21.7" height="124.4"/>
	
		<rect x="311.2" y="194.3" transform="matrix(1.078802e-03 -1 1 1.078802e-03 65.2364 578.369)" class="st0" width="21.7" height="124.4"/>
	
		<rect x="179.5" y="223.3" transform="matrix(1.078802e-03 -1 1 1.078802e-03 -95.309 475.5027)" class="st0" width="21.7" height="124.4"/>
	
		<rect x="311.2" y="223.4" transform="matrix(1.078802e-03 -1 1 1.078802e-03 36.1592 607.312)" class="st0" width="21.7" height="124.4"/>
	
		<rect x="179.4" y="252.1" transform="matrix(1.078802e-03 -1 1 1.078802e-03 -124.1954 504.2554)" class="st0" width="21.7" height="124.4"/>
	
		<rect x="311.1" y="252.2" transform="matrix(1.078802e-03 -1 1 1.078802e-03 7.2727 636.0648)" class="st0" width="21.7" height="124.4"/>
	
		<rect x="179.3" y="281" transform="matrix(1.078802e-03 -1 1 1.078802e-03 -153.2395 533.0408)" class="st0" width="21.7" height="124.4"/>
	
		<rect x="311.3" y="281.2" transform="matrix(1.078802e-03 -1 1 1.078802e-03 -21.6474 665.1647)" class="st0" width="21.7" height="124.4"/>
</g>
</svg>
