<?xml version="1.0" encoding="utf-8"?>
<!-- Generator: Adobe Illustrator 21.1.0, SVG Export Plug-In . SVG Version: 6.00 Build 0)  -->
<svg version="1.1" id="Слой_1" xmlns="http://www.w3.org/2000/svg" xmlns:xlink="http://www.w3.org/1999/xlink" x="0px" y="0px"
	 viewBox="0 0 512 512" style="enable-background:new 0 0 512 512;" xml:space="preserve">
<style type="text/css">
	.st0{fill:#141414;}
</style>
<g>
	<path class="st0" d="M506.1,6v500H6V6H506.1 M512.1,0H0v512h512.1V0L512.1,0z"/>
</g>
<g>
	<g>
		<g>
			<path class="st0" d="M162,129.9c-47.2,0-47.9,0-87.2,0c-21,0-38.2,17.1-38.3,38.2l-0.6,119c0,8.9,7.2,16.2,16.1,16.3
				c0,0,0.1,0,0.1,0c8.9,0,16.2-7.2,16.2-16.1l0.6-119c0,0,0,0,0,0c0-1.8,1.5-3.2,3.2-3.2c1.8,0,3.2,1.4,3.2,3.2l0,272.4
				c0,10.7,8.7,19.4,19.4,19.4s19.4-8.7,19.4-19.4V285.1h8.4v155.4c0,10.7,8.7,19.4,19.4,19.4c10.7,0,19.4-8.7,19.4-19.4
				c0-257-0.3-110-0.4-272.1c0-1.8,1.4-3.3,3.3-3.4s3.4,1.3,3.5,3.1c0,0,0,0,0,0l-0.1,119c0,8.9,7.2,16.2,16.2,16.2c0,0,0,0,0,0
				c8.9,0,16.2-7.2,16.2-16.2l0.1-119c0,0,0-0.1,0-0.1C200.2,147,183,129.9,162,129.9z"/>
		</g>
	</g>
	<g>
		<g>
			<circle class="st0" cx="118.4" cy="85.6" r="33.6"/>
		</g>
	</g>
	<g>
		<g>
			<path class="st0" d="M475.3,261.9c-0.3-0.8-29.8-84.9-34.4-98.4c-7.5-21.7-20-32.7-37.2-32.7c-24.1,0-32,0-56,0
				c-17.2,0-29.7,11-37.2,32.7c-4.6,13.5-34.1,97.5-34.4,98.4c-2.9,8.4,1.5,17.6,9.9,20.5c8.4,2.9,17.6-1.5,20.5-9.9
				c1-2.7,18.7-52,28.6-80.3c-1,8.5,1.9-9.1-23,119.7c-1.1,5.5,3.2,10.6,8.8,10.6c3.5,0,7.6,0,12.3,0v116.7
				c0,10.7,8.6,19.3,19.3,19.3c10.7,0,19.3-8.6,19.3-19.3V322.5c2.8,0,5.6,0,8.3,0v116.7c0,10.7,8.6,19.3,19.3,19.3
				s19.3-8.6,19.3-19.3V322.5c4.7,0,8.8,0,12.3,0c5.6,0,9.8-5.1,8.8-10.6c-24.7-127.6-22-112.8-22.8-119.7
				c10,28.6,27.2,77.6,28.1,80.3c2.9,8.4,12.1,12.8,20.5,9.9C473.8,279.5,478.2,270.3,475.3,261.9z"/>
		</g>
	</g>
	<g>
		<g>
			<circle class="st0" cx="375.8" cy="86.8" r="33.3"/>
		</g>
	</g>
	<g>
		<g>
			<path class="st0" d="M242.1,73.6c-6.9,0-12.4,5.6-12.4,12.4V426c0,6.9,5.6,12.4,12.4,12.4c6.9,0,12.4-5.6,12.4-12.4V86
				C254.5,79.2,248.9,73.6,242.1,73.6z"/>
		</g>
	</g>
</g>
</svg>
